<svg width="25" height="30" viewBox="0 0 25 30" fill="none" xmlns="http://www.w3.org/2000/svg">
<path fill-rule="evenodd" clip-rule="evenodd" d="M20.6065 4.15393C18.7504 1.74563 15.6255 0.294128 12.5665 0.294128H12.4349C9.44022 0.294128 6.41331 1.67897 4.52501 3.98805C3.25486 5.57139 2.63809 7.18874 2.63809 9.6622V10.2887C2.63809 12.1357 2.18214 13.2243 1.07425 14.4788C0.261618 15.4031 0 16.5894 0 17.8765C0 19.1621 0.423853 20.3826 1.2701 21.3735C2.37648 22.5613 3.9389 23.3196 5.53493 23.4515C7.84567 23.7151 10.1564 23.8143 12.5007 23.8143C14.8436 23.8143 17.1558 23.6485 19.4665 23.4515C21.0611 23.3196 22.6235 22.5613 23.7313 21.3735C24.5776 20.3826 25 19.1621 25 17.8765C25 16.5894 24.7399 15.4031 23.9257 14.4788C22.8515 13.2243 22.3633 12.1357 22.3633 10.2887V9.6622C22.3633 7.25389 21.8109 5.7047 20.6065 4.15393ZM15.4548 25.6294C14.7196 25.4738 10.24 25.4738 9.50482 25.6294C8.8763 25.7745 8.19666 26.1136 8.19666 26.8542C8.23321 27.5592 8.64688 28.1843 9.21975 28.5798C9.95931 29.1589 10.8289 29.5247 11.7395 29.6565C12.2248 29.7231 12.7188 29.7217 13.2215 29.6565C14.1306 29.5247 15.0003 29.1589 15.7413 28.5812C16.3128 28.1843 16.7264 27.5592 16.7629 26.8542C16.7629 26.1136 16.0833 25.7745 15.4548 25.6294Z" fill="#AFB4BD"/>
</svg>
